<svg width="1000" height="1000" viewBox="0 0 1000 1000" fill="none" xmlns="http://www.w3.org/2000/svg">
<path fill-rule="evenodd" clip-rule="evenodd" d="M909.199 984.51C834.738 1003.49 756.904 1005.05 681.741 989.072C616.415 975.185 554.635 948.374 499.993 910.326C445.355 948.371 383.579 975.181 318.258 989.069C243.092 1005.05 165.254 1003.49 90.788 984.51C67.5212 909.65 65.1774 829.673 84.1166 753.603C99.3123 692.568 127.706 635.815 167.082 587.247C97.4351 525.096 46.3254 444.445 20.0047 354.232C-10.7536 248.809 -5.92967 136.169 33.6972 33.7486C116.57 1.6516 206.501 -7.77705 294.228 6.43359C368.358 18.4415 438.652 46.9615 499.993 89.6741C561.341 46.956 631.645 18.4343 705.784 6.42911C793.516 -7.777 883.449 1.65777 966.322 33.7619C1005.91 136.098 1010.73 248.642 980.05 353.994C953.751 444.299 902.615 525.038 832.903 587.247C872.281 635.818 900.676 692.575 915.872 753.615C934.819 829.73 932.505 909.614 909.199 984.51ZM123.333 951.889C184.937 964.287 248.511 963.975 310.138 950.872C379.433 936.139 444.399 905.637 499.993 861.724C555.586 905.631 620.568 936.145 689.861 950.875C751.483 963.975 815.053 964.287 876.652 951.889C892.191 890.114 892.324 825.347 876.883 763.321C863.136 708.097 837.466 656.741 801.874 612.773C803.669 611.45 800.098 614.117 801.874 612.773L775.707 583.591L806.955 558.065C808.705 559.801 805.236 556.301 806.955 558.065C871.195 500.721 918.319 426.305 942.557 343.075C969.221 251.519 966.794 154.091 935.853 64.1895C864.057 39.4535 787.166 32.8099 712.026 44.9771C647.859 55.3675 586.809 79.178 532.78 114.639L499.993 138.279L467.26 114.675C413.225 79.1991 352.164 55.3774 287.984 44.9811C212.837 32.8085 135.937 39.4505 64.1319 64.1894C33.1657 154.164 30.7612 251.676 57.4918 343.295C81.7502 426.44 128.85 500.775 193.03 558.065C194.721 556.33 191.309 559.773 193.03 558.065L224.278 583.591L198.111 612.773C162.521 656.738 136.853 708.09 123.105 763.309C107.662 825.338 107.793 890.109 123.333 951.889Z" fill="url(#paint0_linear_724_31)"/>
<path fill-rule="evenodd" clip-rule="evenodd" d="M909.199 984.51C834.738 1003.49 756.904 1005.05 681.741 989.072C616.415 975.185 554.635 948.374 499.993 910.326C445.355 948.371 383.579 975.181 318.258 989.069C243.092 1005.05 165.254 1003.49 90.788 984.51C67.5212 909.65 65.1774 829.673 84.1166 753.603C99.3123 692.568 127.706 635.815 167.082 587.247C97.4351 525.096 46.3254 444.445 20.0047 354.232C-10.7536 248.809 -5.92967 136.169 33.6972 33.7486C116.57 1.6516 206.501 -7.77705 294.228 6.43359C368.358 18.4415 438.652 46.9615 499.993 89.6741C561.341 46.956 631.645 18.4343 705.784 6.42911C793.516 -7.777 883.449 1.65777 966.322 33.7619C1005.91 136.098 1010.73 248.642 980.05 353.994C953.751 444.299 902.615 525.038 832.903 587.247C872.281 635.818 900.676 692.575 915.872 753.615C934.819 829.73 932.505 909.614 909.199 984.51ZM123.333 951.889C184.937 964.287 248.511 963.975 310.138 950.872C379.433 936.139 444.399 905.637 499.993 861.724C555.586 905.631 620.568 936.145 689.861 950.875C751.483 963.975 815.053 964.287 876.652 951.889C892.191 890.114 892.324 825.347 876.883 763.321C863.136 708.097 837.466 656.741 801.874 612.773C803.669 611.45 800.098 614.117 801.874 612.773L775.707 583.591L806.955 558.065C808.705 559.801 805.236 556.301 806.955 558.065C871.195 500.721 918.319 426.305 942.557 343.075C969.221 251.519 966.794 154.091 935.853 64.1895C864.057 39.4535 787.166 32.8099 712.026 44.9771C647.859 55.3675 586.809 79.178 532.78 114.639L499.993 138.279L467.26 114.675C413.225 79.1991 352.164 55.3774 287.984 44.9811C212.837 32.8085 135.937 39.4505 64.1319 64.1894C33.1657 154.164 30.7612 251.676 57.4918 343.295C81.7502 426.44 128.85 500.775 193.03 558.065C194.721 556.33 191.309 559.773 193.03 558.065L224.278 583.591L198.111 612.773C162.521 656.738 136.853 708.09 123.105 763.309C107.662 825.338 107.793 890.109 123.333 951.889Z" fill="url(#paint1_linear_724_31)"/>
<path fill-rule="evenodd" clip-rule="evenodd" d="M909.199 984.51C834.738 1003.49 756.904 1005.05 681.741 989.072C616.415 975.185 554.635 948.374 499.993 910.326C445.355 948.371 383.579 975.181 318.258 989.069C243.092 1005.05 165.254 1003.49 90.788 984.51C67.5212 909.65 65.1774 829.673 84.1166 753.603C99.3123 692.568 127.706 635.815 167.082 587.247C97.4351 525.096 46.3254 444.445 20.0047 354.232C-10.7536 248.809 -5.92967 136.169 33.6972 33.7486C116.57 1.6516 206.501 -7.77705 294.228 6.43359C368.358 18.4415 438.652 46.9615 499.993 89.6741C561.341 46.956 631.645 18.4343 705.784 6.42911C793.516 -7.777 883.449 1.65777 966.322 33.7619C1005.91 136.098 1010.73 248.642 980.05 353.994C953.751 444.299 902.615 525.038 832.903 587.247C872.281 635.818 900.676 692.575 915.872 753.615C934.819 829.73 932.505 909.614 909.199 984.51ZM123.333 951.889C184.937 964.287 248.511 963.975 310.138 950.872C379.433 936.139 444.399 905.637 499.993 861.724C555.586 905.631 620.568 936.145 689.861 950.875C751.483 963.975 815.053 964.287 876.652 951.889C892.191 890.114 892.324 825.347 876.883 763.321C863.136 708.097 837.466 656.741 801.874 612.773C803.669 611.45 800.098 614.117 801.874 612.773L775.707 583.591L806.955 558.065C808.705 559.801 805.236 556.301 806.955 558.065C871.195 500.721 918.319 426.305 942.557 343.075C969.221 251.519 966.794 154.091 935.853 64.1895C864.057 39.4535 787.166 32.8099 712.026 44.9771C647.859 55.3675 586.809 79.178 532.78 114.639L499.993 138.279L467.26 114.675C413.225 79.1991 352.164 55.3774 287.984 44.9811C212.837 32.8085 135.937 39.4505 64.1319 64.1894C33.1657 154.164 30.7612 251.676 57.4918 343.295C81.7502 426.44 128.85 500.775 193.03 558.065C194.721 556.33 191.309 559.773 193.03 558.065L224.278 583.591L198.111 612.773C162.521 656.738 136.853 708.09 123.105 763.309C107.662 825.338 107.793 890.109 123.333 951.889Z" fill="url(#paint2_linear_724_31)"/>
<path fill-rule="evenodd" clip-rule="evenodd" d="M909.199 984.51C834.738 1003.49 756.904 1005.05 681.741 989.072C616.415 975.185 554.635 948.374 499.993 910.326C445.355 948.371 383.579 975.181 318.258 989.069C243.092 1005.05 165.254 1003.49 90.788 984.51C67.5212 909.65 65.1774 829.673 84.1166 753.603C99.3123 692.568 127.706 635.815 167.082 587.247C97.4351 525.096 46.3254 444.445 20.0047 354.232C-10.7536 248.809 -5.92967 136.169 33.6972 33.7486C116.57 1.6516 206.501 -7.77705 294.228 6.43359C368.358 18.4415 438.652 46.9615 499.993 89.6741C561.341 46.956 631.645 18.4343 705.784 6.42911C793.516 -7.777 883.449 1.65777 966.322 33.7619C1005.91 136.098 1010.73 248.642 980.05 353.994C953.751 444.299 902.615 525.038 832.903 587.247C872.281 635.818 900.676 692.575 915.872 753.615C934.819 829.73 932.505 909.614 909.199 984.51ZM123.333 951.889C184.937 964.287 248.511 963.975 310.138 950.872C379.433 936.139 444.399 905.637 499.993 861.724C555.586 905.631 620.568 936.145 689.861 950.875C751.483 963.975 815.053 964.287 876.652 951.889C892.191 890.114 892.324 825.347 876.883 763.321C863.136 708.097 837.466 656.741 801.874 612.773C803.669 611.45 800.098 614.117 801.874 612.773L775.707 583.591L806.955 558.065C808.705 559.801 805.236 556.301 806.955 558.065C871.195 500.721 918.319 426.305 942.557 343.075C969.221 251.519 966.794 154.091 935.853 64.1895C864.057 39.4535 787.166 32.8099 712.026 44.9771C647.859 55.3675 586.809 79.178 532.78 114.639L499.993 138.279L467.26 114.675C413.225 79.1991 352.164 55.3774 287.984 44.9811C212.837 32.8085 135.937 39.4505 64.1319 64.1894C33.1657 154.164 30.7612 251.676 57.4918 343.295C81.7502 426.44 128.85 500.775 193.03 558.065C194.721 556.33 191.309 559.773 193.03 558.065L224.278 583.591L198.111 612.773C162.521 656.738 136.853 708.09 123.105 763.309C107.662 825.338 107.793 890.109 123.333 951.889Z" fill="url(#paint3_linear_724_31)"/>
<defs>
<linearGradient id="paint0_linear_724_31" x1="97.0625" y1="986.847" x2="893.744" y2="735.473" gradientUnits="userSpaceOnUse">
<stop stop-color="#30E87D"/>
<stop offset="0.255208" stop-color="#14B874"/>
<stop offset="0.5" stop-color="#0D7359"/>
<stop offset="1" stop-color="#0D7359" stop-opacity="0"/>
</linearGradient>
<linearGradient id="paint1_linear_724_31" x1="907.044" y1="981.527" x2="93.0724" y2="743.453" gradientUnits="userSpaceOnUse">
<stop stop-color="#30E87D"/>
<stop offset="0.255208" stop-color="#14B874"/>
<stop offset="0.5" stop-color="#0D7359"/>
<stop offset="1" stop-color="#0D7359" stop-opacity="0"/>
</linearGradient>
<linearGradient id="paint2_linear_724_31" x1="962.271" y1="36.7462" x2="42.7444" y2="239.252" gradientUnits="userSpaceOnUse">
<stop stop-color="#30E87D"/>
<stop offset="0.255208" stop-color="#14B874"/>
<stop offset="0.5" stop-color="#0D7359"/>
<stop offset="1" stop-color="#0D7359" stop-opacity="0"/>
</linearGradient>
<linearGradient id="paint3_linear_724_31" x1="35.2443" y1="38.2461" x2="959.271" y2="231.752" gradientUnits="userSpaceOnUse">
<stop stop-color="#30E87D"/>
<stop offset="0.255208" stop-color="#14B874"/>
<stop offset="0.5" stop-color="#0D7359"/>
<stop offset="1" stop-color="#0D7359" stop-opacity="0"/>
</linearGradient>
</defs>
</svg>
